# xmcd
#
# Track frame offsets:
#	150
#	15342
#	31612
#	42790
#	60352
#	72392
#	87412
#	99547
#	117167
#	130550
#
# Disc length: 1890 seconds
#
# Revision: 2
# Processed by: cddbd v1.5.1PL0 Copyright (c) Steve Scherf et al.
# Submitted via: audiograbber 1.82.02
#
DISCID=6f07600a
DTITLE=Charlie Chase - My Wife ... My Life
DYEAR=1993
DGENRE=Country
TTITLE0=My Wife
TTITLE1=Out On Her Own w/Garth Brooks and Doug Stone
TTITLE2=My Home Town
TTITLE3=Love, Me w/Western Flyer
TTITLE4=Thank God For Kids w/The Oakridge Boys
TTITLE5=Hands
TTITLE6=When You're In Love w/Wester Flyer
TTITLE7=Best Thing That Ever Happened To Me
TTITLE8=Mom And Dad
TTITLE9=Christmas Is For Kids
EXTD=
EXTT0=
EXTT1=
EXTT2=
EXTT3=
EXTT4=
EXTT5=
EXTT6=
EXTT7=
EXTT8=
EXTT9=
PLAYORDER=
